<svg width="40" height="40" viewBox="0 0 40 40" fill="none" xmlns="http://www.w3.org/2000/svg">
<g id="mdi:instagram">
<path id="Vector" d="M13.6998 5H26.2998C31.0998 5 34.9998 8.9 34.9998 13.7V26.3C34.9998 28.6074 34.0832 30.8203 32.4516 32.4518C30.8201 34.0834 28.6072 35 26.2998 35H13.6998C8.89982 35 4.99982 31.1 4.99982 26.3V13.7C4.99982 11.3926 5.91642 9.17974 7.54799 7.54817C9.17955 5.9166 11.3924 5 13.6998 5ZM13.3998 8C11.9676 8 10.5941 8.56893 9.58144 9.58162C8.56874 10.5943 7.99982 11.9678 7.99982 13.4V26.6C7.99982 29.585 10.4148 32 13.3998 32H26.5998C28.032 32 29.4055 31.4311 30.4182 30.4184C31.4309 29.4057 31.9998 28.0322 31.9998 26.6V13.4C31.9998 10.415 29.5848 8 26.5998 8H13.3998ZM27.8748 10.25C28.3721 10.25 28.849 10.4475 29.2006 10.7992C29.5523 11.1508 29.7498 11.6277 29.7498 12.125C29.7498 12.6223 29.5523 13.0992 29.2006 13.4508C28.849 13.8025 28.3721 14 27.8748 14C27.3775 14 26.9006 13.8025 26.549 13.4508C26.1974 13.0992 25.9998 12.6223 25.9998 12.125C25.9998 11.6277 26.1974 11.1508 26.549 10.7992C26.9006 10.4475 27.3775 10.25 27.8748 10.25ZM19.9998 12.5C21.9889 12.5 23.8966 13.2902 25.3031 14.6967C26.7096 16.1032 27.4998 18.0109 27.4998 20C27.4998 21.9891 26.7096 23.8968 25.3031 25.3033C23.8966 26.7098 21.9889 27.5 19.9998 27.5C18.0107 27.5 16.103 26.7098 14.6965 25.3033C13.29 23.8968 12.4998 21.9891 12.4998 20C12.4998 18.0109 13.29 16.1032 14.6965 14.6967C16.103 13.2902 18.0107 12.5 19.9998 12.5ZM19.9998 15.5C18.8063 15.5 17.6617 15.9741 16.8178 16.818C15.9739 17.6619 15.4998 18.8065 15.4998 20C15.4998 21.1935 15.9739 22.3381 16.8178 23.182C17.6617 24.0259 18.8063 24.5 19.9998 24.5C21.1933 24.5 22.3379 24.0259 23.1818 23.182C24.0257 22.3381 24.4998 21.1935 24.4998 20C24.4998 18.8065 24.0257 17.6619 23.1818 16.818C22.3379 15.9741 21.1933 15.5 19.9998 15.5Z" fill="black"/>
</g>
</svg>
