<svg width="40" height="40" viewBox="0 0 40 40" fill="none" xmlns="http://www.w3.org/2000/svg">
<g id="wpf:behance">
<path id="Vector" d="M27.5 19.3077C27.7308 19.6538 27.9615 20 28.0769 20.5769H24.3846C24.3846 20.4615 24.3846 20.2308 24.5 20C24.6154 19.7692 24.6154 19.6538 24.8462 19.4231C24.9615 19.1923 25.1923 19.0769 25.4231 18.9615C25.6538 18.8462 26 18.7308 26.3462 18.7308C26.8077 18.8462 27.2692 18.9615 27.5 19.3077ZM16.8846 18.5C17.1154 18.2692 17.3462 17.9231 17.3462 17.4615C17.3462 17.2308 17.3462 17 17.2308 16.7692C17.1154 16.6538 17 16.4231 16.8846 16.4231C16.7692 16.3077 16.5385 16.3077 16.3077 16.1923H13.3077V18.8462H15.8462C16.1923 18.8462 16.5385 18.7308 16.8846 18.5ZM15.9615 20.4615H13.3077V23.5769H15.9615C16.1923 23.5769 16.4231 23.5769 16.6538 23.4615C16.8846 23.4615 17.1154 23.3462 17.2308 23.2308C17.3462 23.1154 17.5769 23 17.6923 22.7692C17.8077 22.5385 17.8077 22.3077 17.8077 22.0769C17.8077 21.5 17.6923 21.0385 17.3462 20.8077C17 20.5769 16.5385 20.4615 15.9615 20.4615ZM35 10.6538V29.3462C35 32.4615 32.4615 35 29.3462 35H10.6538C7.53846 35 5 32.4615 5 29.3462V10.6538C5 7.53846 7.53846 5 10.6538 5H29.3462C32.4615 5 35 7.53846 35 10.6538ZM23.9231 16.0769H28.5385V14.9231H23.9231V16.0769ZM20.2308 22.3077C20.2308 21.6154 20.1154 21.0385 19.7692 20.4615C19.4231 20 18.9615 19.6538 18.2692 19.4231C18.7308 19.1923 19.1923 18.8462 19.4231 18.5C19.6538 18.1538 19.7692 17.6923 19.7692 17.1154C19.7692 16.5385 19.6538 16.1923 19.5385 15.7308C19.3077 15.3846 19.0769 15.0385 18.8462 14.9231C18.5 14.6923 18.1538 14.5769 17.6923 14.4615C17.1154 14.2308 16.6538 14.2308 16.0769 14.2308H10.7692V25.5385H16.3077C16.7692 25.5385 17.3462 25.4231 17.8077 25.3077C18.2692 25.1923 18.7308 24.9615 19.0769 24.7308C19.4231 24.5 19.7692 24.1538 20 23.6923C20.1154 23.3462 20.2308 22.8846 20.2308 22.3077ZM24.3846 21.9615H30.2692C30.2692 21.2692 30.2692 20.6923 30.1538 20.1154C30.0385 19.5385 29.8077 18.9615 29.4615 18.6154C29.1154 18.1538 28.6538 17.8077 28.1923 17.5769C27.6154 17.3462 27.0385 17.1154 26.3462 17.1154C25.7692 17.1154 25.1923 17.2308 24.6154 17.4615C24.1538 17.6923 23.6923 18.0385 23.2308 18.3846C22.8846 18.7308 22.5385 19.1923 22.4231 19.7692C22.1923 20.3462 22.0769 20.9231 22.0769 21.5C22.0769 22.0769 22.1923 22.7692 22.4231 23.2308C22.6538 23.8077 22.8846 24.2692 23.2308 24.6154C23.5769 24.9615 24.0385 25.3077 24.5 25.5385C25.0769 25.7692 25.6538 25.8846 26.2308 25.8846C27.1538 25.8846 27.9615 25.6538 28.6538 25.1923C29.3462 24.7308 29.8077 24.0385 30.1538 23.1154H28.1923C28.0769 23.3462 27.9615 23.5769 27.6154 23.8077C27.2692 24.0385 26.9231 24.1538 26.4615 24.1538C25.8846 24.1538 25.3077 24.0385 24.9615 23.6923C24.6154 23.2308 24.3846 22.6538 24.3846 21.9615Z" fill="black"/>
</g>
</svg>
