<svg width="40" height="40" viewBox="0 0 40 40" fill="none" xmlns="http://www.w3.org/2000/svg">
<g id="mdi:email">
<path id="Vector" d="M31.9998 14L19.9998 21.5L7.99985 14V11L19.9998 18.5L31.9998 11M31.9998 8H7.99985C6.33485 8 4.99985 9.335 4.99985 11V29C4.99985 29.7956 5.31592 30.5587 5.87853 31.1213C6.44114 31.6839 7.2042 32 7.99985 32H31.9998C32.7955 32 33.5586 31.6839 34.1212 31.1213C34.6838 30.5587 34.9998 29.7956 34.9998 29V11C34.9998 10.2044 34.6838 9.44129 34.1212 8.87868C33.5586 8.31607 32.7955 8 31.9998 8Z" 
fill="#6341dd"/>
</g>
</svg>
